<!DOCTYPE svg PUBLIC "-//W3C//DTD SVG 1.1//EN" "http://www.w3.org/Graphics/SVG/1.1/DTD/svg11.dtd">
<!-- Uploaded to: SVG Repo, www.svgrepo.com, Transformed by: SVG Repo Mixer Tools -->
<svg fill="#000000" width="32px" height="32px" viewBox="0 0 24 24" id="folder-alt" data-name="Flat Color" xmlns="http://www.w3.org/2000/svg" class="icon flat-color">

<g id="SVGRepo_bgCarrier" stroke-width="0"/>

<g id="SVGRepo_tracerCarrier" stroke-linecap="round" stroke-linejoin="round"/>

<g id="SVGRepo_iconCarrier">

<path id="primary" d="M17,6H11.83L9.4,3.56A2.05,2.05,0,0,0,8,3H4A2,2,0,0,0,2,5V20a1,1,0,0,0,1,1H18a1,1,0,0,0,1-1V8A2,2,0,0,0,17,6Z" style="fill: #222;"/>

<path id="secondary" d="M21.81,10.42A1,1,0,0,0,21,10H7a1,1,0,0,0-.91.59l-4,9A1,1,0,0,0,3,21H18a1,1,0,0,0,.95-.68l3-9A1,1,0,0,0,21.81,10.42Z" style="fill: #888;"/>

</g>

</svg>